<?xml version="1.0" encoding="UTF-8"?>
<svg width="108dp" height="108dp" viewBox="0 0 108 108" version="1.1" xmlns="http://www.w3.org/2000/svg">
    <circle cx="54" cy="54" r="50" fill="#6200EE"/>
    <circle cx="54" cy="54" r="20" fill="white"/>
    <path d="M54,40 C46.27,40 40,46.27 40,54 C40,61.73 46.27,68 54,68 C61.73,68 68,61.73 68,54 C68,46.27 61.73,40 54,40 Z M54,64 C48.48,64 44,59.52 44,54 C44,48.48 48.48,44 54,44 C59.52,44 64,48.48 64,54 C64,59.52 59.52,64 54,64 Z" fill="#6200EE"/>
</svg>
